# xmcd
#
# Track frame offsets:
#	150
#	12082
#	25185
#	38342
#	48397
#	61667
#	75117
#	88387
#	101712
#	114525
#	126560
#	137372
#	150755
#	163902
#	185717
#	197630
#	209185
#	220310
#	230970
#	242062
#	256965
#	271370
#	283235
#	296227
#	312587
#	323312
#	333767
#
# Disc length: 4654 seconds
#
# Revision: 0
# Processed by: cddbd v1.5.2PL0 Copyright (c) Steve Scherf et al.
# Submitted via: EZCDAudioConverter 4.0.9.1
#
DISCID=8a122c1b
DTITLE=The Temptations - The Temptations: Anthology CD1
DYEAR=1995
DGENRE=R&B
TTITLE0=The Way You Do The Things You Do
TTITLE1=I'll Be In Trouble
TTITLE2=The Girl's Alright With Me
TTITLE3=Girl (Why You Wanna Make Me Blue)
TTITLE4=My Girl
TTITLE5=It's Growing
TTITLE6=What Love Has Joined Together
TTITLE7=Who's Lovin' You
TTITLE8=Since I Lost My Baby
TTITLE9=You've Got To Earn It
TTITLE10=Nobody But You
TTITLE11=My Baby
TTITLE12=Don't Look Back
TTITLE13=O' Man River
TTITLE14=Get Ready
TTITLE15=Ain't Too Proud To Beg
TTITLE16=You'll Lose a Precious Love
TTITLE17=Beauty Is Only Skin Deep
TTITLE18=(I Know) I'm Losing You
TTITLE19=All I Need
TTITLE20=You're My Everything
TTITLE21=It's You That I Need
TTITLE22=I Wish It Would Rain
TTITLE23=I Could Never Love Another
TTITLE24=Please Return Your Love To Me
TTITLE25=Lullaby Of Love
TTITLE26=The Impossible Dream
EXTD=
EXTT0=
EXTT1=
EXTT2=
EXTT3=
EXTT4=
EXTT5=
EXTT6=
EXTT7=
EXTT8=
EXTT9=
EXTT10=
EXTT11=
EXTT12=
EXTT13=
EXTT14=
EXTT15=
EXTT16=
EXTT17=
EXTT18=
EXTT19=
EXTT20=
EXTT21=
EXTT22=
EXTT23=
EXTT24=
EXTT25=
EXTT26=
PLAYORDER=
